<svg xmlns="http://www.w3.org/2000/svg" viewBox="0 0 1280 800"><defs><style>.cls-1,.cls-2{stroke:#fff;stroke-miterlimit:10;stroke-width:7px;}.cls-2{font-size:153.71px;font-family:CooperBlack, Cooper Black;letter-spacing:0.02em;}</style></defs><title>name </title><g id="tree"><path class="cls-1" d="M569.84,417s22.33,4.21,55.51-5.71,42.26-19.06,42.26-19.06,1.48,14.82-12.93,32.89-55.36,54.28-122.77,79c0,0,31.21,13.58,60.92,9.63s38.56-5.29,60.29-19.83c19.6-12.56-32.27,81.38-157.93,84.07,0,0,24.4,24.4,64,25,34.6.55,90.18,1.08,121.54-49.59,0,0,3.44,38,3.72,43.5s-7.87,31.53-7.87,31.53l42.69.68s-18.09-42.63-12.91-67.21,11.53-30,11.53-30a119.42,119.42,0,0,0,11.67,9.33c21.41,17.34,88.92,20.87,110.18,14,28.12-9.12,35.46-24.92,35.46-24.92C749.69,523.58,700.86,428,720,441.21s71,26.34,71,26.34c47.67,11.81,63.43-7.08,63.43-7.08-66.59-26.82-120-69.49-133.83-88s-11.87-33.29-11.87-33.29,8.78,9.42,41.62,20.41c57.56,17,55.3,7.49,55.3,7.49s-95.37-54.67-112.28-97c-2.06,23.18-8.24,49.26-30.77,76.87C636.44,379.13,569.84,417,569.84,417Z"/></g><g id="text"><text class="cls-2" transform="translate(432.73 361.76) rotate(-0.22) scale(0.7 1)">M<tspan x="138.68" y="0.32">P</tspan></text></g></svg>