<svg xmlns="http://www.w3.org/2000/svg" viewBox="0 0 942 592"><defs><style>.cls-1{fill:#fff;stroke:#000;}.cls-1,.cls-2,.cls-3,.cls-4{stroke-miterlimit:10;}.cls-2{fill:#ff7417;stroke:#ff7417;stroke-width:4px;}.cls-3,.cls-4{stroke:#fff;stroke-width:7px;}.cls-4{font-size:153.71px;font-family:CooperBlack, Cooper Black;letter-spacing:0.02em;}</style></defs><title>Asset 1</title><g id="Layer_2" data-name="Layer 2"><g id="Layer_1-2" data-name="Layer 1"><path class="cls-1" d="M127.41,511.5"/><text></text><path class="cls-1" d="M1069.41,511.5"/><text></text></g><g id="schape"><circle class="cls-2" cx="542.91" cy="296" r="294"/></g><g id="tree"><path class="cls-3" d="M494.75,285s22.33,4.21,55.51-5.71,42.26-19.06,42.26-19.06,1.48,14.82-12.93,32.89-55.36,54.28-122.77,79c0,0,31.21,13.58,60.92,9.63s38.56-5.29,60.29-19.83c19.6-12.56-32.27,81.38-157.93,84.07,0,0,24.4,24.4,64,25,34.6.55,90.18,1.08,121.54-49.59,0,0,3.44,38,3.72,43.5s-7.87,31.53-7.87,31.53l42.69.68s-18.09-42.63-12.91-67.21,11.53-30,11.53-30a119.42,119.42,0,0,0,11.67,9.33c21.41,17.34,88.92,20.87,110.18,14,28.12-9.12,35.46-24.92,35.46-24.92C674.6,391.58,625.77,296,645,309.21s71,26.34,71,26.34c47.67,11.81,63.43-7.08,63.43-7.08-66.59-26.82-120-69.49-133.83-88s-11.87-33.29-11.87-33.29,8.78,9.42,41.62,20.41c57.56,17,55.3,7.49,55.3,7.49s-95.37-54.67-112.28-97c-2.06,23.18-8.24,49.26-30.77,76.87C561.35,247.13,494.75,285,494.75,285Z"/></g><g id="text"><text class="cls-4" transform="translate(357.64 229.76) rotate(-0.22) scale(0.7 1)">M<tspan x="138.68" y="0.32">P</tspan></text></g></g></svg>